<?xml version="1.0" encoding="utf-8"?>
<!-- Generator: Adobe Illustrator 24.3.0, SVG Export Plug-In . SVG Version: 6.00 Build 0)  -->
<svg version="1.1" id="Layer_1" xmlns="http://www.w3.org/2000/svg" xmlns:xlink="http://www.w3.org/1999/xlink" x="0px" y="0px"
	 viewBox="0 0 595.28 841.89" style="enable-background:new 0 0 595.28 841.89;" xml:space="preserve">
<style type="text/css">
	.st0{fill:none;stroke:#102D4E;stroke-width:5;stroke-miterlimit:10;}
</style>
<g id="Layer_2_1_">
	<path class="st0" d="M231.5,652.89l9.18-4.45l9.9-10.69c0,0,16.46-26.43,20.52-42.12s9.54-39.27,9.54-39.27l4.72-36.07
		c0,0-4.41,16.04-15.39,22.48c-10.98,6.44-43.96,18.54-43.96,18.54l-22.72,5.4c0,0-29.29,6.05-53.14,1.8
		c-23.8-4.3-69.96-19.28-76.94-34.27l-9.54-12.14l-8.05-14.64c0,0-5.95-21.43-5.95-30.33c0-8.94,2.31-23.53,2.31-23.53
		s11.75-41.42,23.8-54.61c12.05-13.19,12.82-17.84,23.44-28.93c10.62-11.09,24.16-24.63,24.16-24.63l48.01-44.61l78.06-85.98
		l48.88-57.65l51.5,65.5l41.39,44.26l79.5,72.09l31.85,34.27c0,0,32.62,43.17,35.9,55.65c3.33,12.49,8.46,23.88,8.46,31.72
		c0,7.84-1.85,36.42-5.85,42.47c-4.05,6.05-13.18,24.28-20.16,30.33c-6.98,6.05-27.85,21.03-41.03,26.43
		c-13.18,5.35-27.13,8.19-27.13,8.19s-21.59,2.15-38.11-0.7c-16.52-2.85-49.8-12.49-56.42-15.69c-6.62-3.2-27.49-13.19-30.42-19.28
		c-2.92-6.05-4.77-3.2-6.98-13.94l-0.72,7.49c0,0,4.41,52.11,10.26,58.5l9.18,22.83l10.62,17.49c0,0,16.11,23.93,22,28.03H231.5
		V652.89z"/>
</g>
<path class="st0" d="M6.14,9.25v205.48V9.25z"/>
<path class="st0" d="M221.21,9.25H6.14H221.21z"/>
<polyline class="st0" points="382.85,9.25 582.85,9.25 589.7,9.25 589.7,214.73 "/>
<polyline class="st0" points="6.14,670.89 6.14,835.27 169.15,835.27 "/>
<polyline class="st0" points="404.77,835.27 589.7,835.27 589.7,670.89 "/>
</svg>
