<?xml version="1.0" encoding="utf-8"?>
<!-- Generator: Adobe Illustrator 24.3.0, SVG Export Plug-In . SVG Version: 6.00 Build 0)  -->
<svg version="1.1" id="Layer_2" xmlns="http://www.w3.org/2000/svg" xmlns:xlink="http://www.w3.org/1999/xlink" x="0px" y="0px"
	 viewBox="0 0 595.28 841.89" style="enable-background:new 0 0 595.28 841.89;" xml:space="preserve">
<style type="text/css">
	.st0{fill:none;stroke:#112D4E;stroke-width:3;stroke-miterlimit:10;}
</style>
<path class="st0" d="M259,665.89l12.14-18l9.43-25.29l6.43-23.57c0,0,5.14-44.57,3.43-60.86l-8.57,23.57
	c0,0-14.14,29.57-38.14,45.86s-45.86,22.71-69,24s-63.86-9.43-86.57-29.57c0,0-37.71-38.57-39-70.29c0,0-15-45,26.14-98.57
	c0,0,28.29-31.29,63-39.43c0,0,37.29-10.29,78,7.29c0,0-39.86-53.14-38.57-84.86c0,0-12-63,33.86-105s111.86-48.43,160.29-10.29
	S449.43,309.32,380,397.6l-0.86,3.43c0,0,104.57-46.29,160.71,63.43c0,0,28.29,68.57-16.29,121.29c0,0-33.43,48-110.14,45.86
	c0,0-54.43-4.71-88.71-52.29c0,0-18-32.57-18.86-42c0,0-4.29,88.29,30,128.57H259z"/>
<polyline class="st0" points="3.71,216.75 3.71,4.18 195.71,4.18 "/>
<polyline class="st0" points="376.57,4.18 590.86,4.18 590.86,203.03 "/>
<polyline class="st0" points="4.57,644.46 4.57,836.46 206,836.46 "/>
<polyline class="st0" points="374,836.46 591.71,836.46 591.71,651.32 "/>
</svg>
