<?xml version="1.0" encoding="utf-8"?>
<!-- Generator: Adobe Illustrator 24.3.0, SVG Export Plug-In . SVG Version: 6.00 Build 0)  -->
<svg version="1.1" id="Layer_2_1_" xmlns="http://www.w3.org/2000/svg" xmlns:xlink="http://www.w3.org/1999/xlink" x="0px" y="0px"
	 viewBox="0 0 595.28 841.89" style="enable-background:new 0 0 595.28 841.89;" xml:space="preserve">
<style type="text/css">
	.st0{fill:none;stroke:#102D4E;stroke-width:4;stroke-miterlimit:10;}
</style>
<path class="st0" d="M288.29,514.6l-3.43,10.29c0,0-11.14,13.29-21.43,18.86c-10.29,5.57-42,15.43-42,15.43l-30,5.14h-20.14
	c0,0-40.29-4.29-48-9.43l-14.57-5.57c0,0-23.57-13.71-26.57-18s-21.14-27-23.14-43.71s-1.29-20.14,0-44.57
	c0,0,9.86-30.29,19.71-45.14s21.86-30.29,21.86-30.29L125,341.89l57.43-54.86L301.5,146.89l36.5,48.43l43.29,50.14l44.14,43.29
	l48.43,45c0,0,41.57,45,45,54s27.14,45,27.14,71.57v17.14c0,0-7,26.57-13.86,36s-29.57,34.29-53.14,42c0,0-15.86,12-52.29,7.71
	c0,0-50.57-5.57-71.14-18c0,0-26.14-9.86-32.57-30s-6.43-20.14-6.43-20.14l-6-18.86l-3-8.57L288.29,514.6z"/>
<polyline class="st0" points="8.86,196.18 8.86,12.75 166.57,12.75 "/>
<polyline class="st0" points="411.71,12.75 584.86,12.75 584.86,196.18 "/>
<polyline class="st0" points="8.86,638.46 8.86,832.18 204.29,832.18 "/>
<polyline class="st0" points="386,832.18 584.86,832.18 584.86,645.32 "/>
<path class="st0" d="M1047.71,173.89"/>
<path class="st0" d="M662.86,550.18"/>
</svg>
