<svg width="438" height="449" viewBox="0 0 438 449" fill="none" xmlns="http://www.w3.org/2000/svg">
<path d="M502.4 -14.1501C477.16 16.6699 463.18 54.9599 449.93 92.5299C436.68 130.1 423.34 168.51 399.03 200.08C374.73 231.65 337.01 255.75 297.26 253.09C219.4 247.87 168.32 161.97 95.5899 139.21C72.1799 131.88 44.7999 132.82 25.2799 147.67C-2.03009 168.44 -5.22009 210.66 10.2199 241.3C25.6599 271.94 55.2099 292.89 85.3499 309.28C108.5 321.87 132.69 332.54 157.59 341.16C188.97 352.01 222.98 360.47 246.49 383.92C276.29 413.65 270.18 436.92 253.82 458.56H585.6V-48.0601H539.87C525.84 -38.6301 513.13 -27.2501 502.4 -14.1501Z" fill="#27496D"/>
</svg>
